<?xml version="1.0" encoding="UTF-8" standalone="no"?>
<!DOCTYPE svg PUBLIC "-//W3C//DTD SVG 1.1//EN"
 "http://www.w3.org/Graphics/SVG/1.1/DTD/svg11.dtd">
<!-- Generated by graphviz version 13.1.0 (20250701.0955)
 -->
<!-- Title: max30105_fifo_init Pages: 1 -->
<svg width="297pt" height="1182pt"
 viewBox="0.00 0.00 297.00 1182.00" xmlns="http://www.w3.org/2000/svg" xmlns:xlink="http://www.w3.org/1999/xlink">
<g id="graph0" class="graph" transform="scale(1 1) rotate(0) translate(4 1178)">
<title>max30105_fifo_init</title>
<!-- Node1 -->
<g id="Node000001" class="node">
<title>Node1</title>
<g id="a_Node000001"><a xlink:title="fifo example init">
<polygon fill="#999999" stroke="#666666" points="97.75,-591 0,-591 0,-571 97.75,-571 97.75,-591"/>
<text xml:space="preserve" text-anchor="middle" x="48.88" y="-577.5" font-family="Helvetica,sans-Serif" font-size="10.00">max30105_fifo_init</text>
</a>
</g>
</g>
<!-- Node2 -->
<g id="Node000002" class="node">
<title>Node2</title>
<g id="a_Node000002"><a xlink:href="group__max30105__basic__driver.html#gaee4f5d029e5ec8bce0e5f873be91c6ca" target="_top" xlink:title="close the chip">
<polygon fill="white" stroke="#666666" points="255.88,-1174 166.38,-1174 166.38,-1154 255.88,-1154 255.88,-1174"/>
<text xml:space="preserve" text-anchor="middle" x="211.12" y="-1160.5" font-family="Helvetica,sans-Serif" font-size="10.00">max30105_deinit</text>
</a>
</g>
</g>
<!-- Node1&#45;&gt;Node2 -->
<g id="edge1_Node000001_Node000002" class="edge">
<title>Node1&#45;&gt;Node2</title>
<g id="a_edge1_Node000001_Node000002"><a xlink:title=" ">
<path fill="none" stroke="#63b8ff" d="M49.9,-591.32C50.31,-660.74 56.05,-1059.44 133.75,-1145 139.56,-1151.4 147.17,-1155.8 155.32,-1158.79"/>
<polygon fill="#63b8ff" stroke="#63b8ff" points="154.23,-1162.12 164.81,-1161.54 156.18,-1155.39 154.23,-1162.12"/>
</a>
</g>
</g>
<!-- Node3 -->
<g id="Node000003" class="node">
<title>Node3</title>
<g id="a_Node000003"><a xlink:href="group__max30105__basic__driver.html#gaebcfd8d41be0e73642996278ba56345b" target="_top" xlink:title="get the interrupt status">
<polygon fill="white" stroke="#666666" points="271.25,-1136 151,-1136 151,-1104 271.25,-1104 271.25,-1136"/>
<text xml:space="preserve" text-anchor="start" x="159" y="-1122.5" font-family="Helvetica,sans-Serif" font-size="10.00">max30105_get_interrupt</text>
<text xml:space="preserve" text-anchor="middle" x="211.12" y="-1110.5" font-family="Helvetica,sans-Serif" font-size="10.00">_status</text>
</a>
</g>
</g>
<!-- Node1&#45;&gt;Node3 -->
<g id="edge2_Node000001_Node000003" class="edge">
<title>Node1&#45;&gt;Node3</title>
<g id="a_edge2_Node000001_Node000003"><a xlink:title=" ">
<path fill="none" stroke="#63b8ff" d="M50.14,-591.18C52.02,-656.38 65.39,-1015.16 133.75,-1095 135.92,-1097.53 138.35,-1099.81 140.97,-1101.86"/>
<polygon fill="#63b8ff" stroke="#63b8ff" points="138.95,-1104.72 149.26,-1107.16 142.73,-1098.83 138.95,-1104.72"/>
</a>
</g>
</g>
<!-- Node4 -->
<g id="Node000004" class="node">
<title>Node4</title>
<g id="a_Node000004"><a xlink:href="group__max30105__basic__driver.html#ga075d129ff818425c5f4757bd522dc044" target="_top" xlink:title="initialize the chip">
<polygon fill="white" stroke="#666666" points="250.62,-1086 171.62,-1086 171.62,-1066 250.62,-1066 250.62,-1086"/>
<text xml:space="preserve" text-anchor="middle" x="211.12" y="-1072.5" font-family="Helvetica,sans-Serif" font-size="10.00">max30105_init</text>
</a>
</g>
</g>
<!-- Node1&#45;&gt;Node4 -->
<g id="edge3_Node000001_Node000004" class="edge">
<title>Node1&#45;&gt;Node4</title>
<g id="a_edge3_Node000001_Node000004"><a xlink:title=" ">
<path fill="none" stroke="#63b8ff" d="M50.21,-591.29C52.48,-654.16 67.49,-985.98 133.75,-1057 140.73,-1064.48 150.15,-1069.21 159.99,-1072.16"/>
<polygon fill="#63b8ff" stroke="#63b8ff" points="159.17,-1075.56 169.71,-1074.43 160.77,-1068.74 159.17,-1075.56"/>
</a>
</g>
</g>
<!-- Node5 -->
<g id="Node000005" class="node">
<title>Node5</title>
<g id="a_Node000005"><a xlink:href="group__max30105__interface__driver.html#ga05fd6dd464e408afb68dbc305a02f0e1" target="_top" xlink:title="interface print format data">
<polygon fill="white" stroke="#666666" points="263,-1048 159.25,-1048 159.25,-1016 263,-1016 263,-1048"/>
<text xml:space="preserve" text-anchor="start" x="167.25" y="-1034.5" font-family="Helvetica,sans-Serif" font-size="10.00">max30105_interface</text>
<text xml:space="preserve" text-anchor="middle" x="211.12" y="-1022.5" font-family="Helvetica,sans-Serif" font-size="10.00">_debug_print</text>
</a>
</g>
</g>
<!-- Node1&#45;&gt;Node5 -->
<g id="edge4_Node000001_Node000005" class="edge">
<title>Node1&#45;&gt;Node5</title>
<g id="a_edge4_Node000001_Node000005"><a xlink:title=" ">
<path fill="none" stroke="#63b8ff" d="M50.52,-591.28C54.38,-649.95 76.3,-942.08 133.75,-1007 137.91,-1011.7 142.97,-1015.52 148.48,-1018.63"/>
<polygon fill="#63b8ff" stroke="#63b8ff" points="146.88,-1021.75 157.42,-1022.83 149.86,-1015.41 146.88,-1021.75"/>
</a>
</g>
</g>
<!-- Node6 -->
<g id="Node000006" class="node">
<title>Node6</title>
<g id="a_Node000006"><a xlink:href="group__max30105__interface__driver.html#ga0071b39dcb5d7015dbc2ae9c4babfb67" target="_top" xlink:title="interface delay ms">
<polygon fill="white" stroke="#666666" points="263,-998 159.25,-998 159.25,-966 263,-966 263,-998"/>
<text xml:space="preserve" text-anchor="start" x="167.25" y="-984.5" font-family="Helvetica,sans-Serif" font-size="10.00">max30105_interface</text>
<text xml:space="preserve" text-anchor="middle" x="211.12" y="-972.5" font-family="Helvetica,sans-Serif" font-size="10.00">_delay_ms</text>
</a>
</g>
</g>
<!-- Node1&#45;&gt;Node6 -->
<g id="edge5_Node000001_Node000006" class="edge">
<title>Node1&#45;&gt;Node6</title>
<g id="a_edge5_Node000001_Node000006"><a xlink:title=" ">
<path fill="none" stroke="#63b8ff" d="M50.83,-591.48C56.01,-646.4 82.51,-900.54 133.75,-957 137.97,-961.65 143.07,-965.44 148.6,-968.52"/>
<polygon fill="#63b8ff" stroke="#63b8ff" points="147.03,-971.65 157.57,-972.71 149.99,-965.31 147.03,-971.65"/>
</a>
</g>
</g>
<!-- Node7 -->
<g id="Node000007" class="node">
<title>Node7</title>
<g id="a_Node000007"><a xlink:href="group__max30105__interface__driver.html#ga50e375c959874b881491d96c50b7ed91" target="_top" xlink:title="interface iic bus deinit">
<polygon fill="white" stroke="#666666" points="263,-948 159.25,-948 159.25,-916 263,-916 263,-948"/>
<text xml:space="preserve" text-anchor="start" x="167.25" y="-934.5" font-family="Helvetica,sans-Serif" font-size="10.00">max30105_interface</text>
<text xml:space="preserve" text-anchor="middle" x="211.12" y="-922.5" font-family="Helvetica,sans-Serif" font-size="10.00">_iic_deinit</text>
</a>
</g>
</g>
<!-- Node1&#45;&gt;Node7 -->
<g id="edge6_Node000001_Node000007" class="edge">
<title>Node1&#45;&gt;Node7</title>
<g id="a_edge6_Node000001_Node000007"><a xlink:title=" ">
<path fill="none" stroke="#63b8ff" d="M51.2,-591.4C57.8,-641.64 88.58,-858.82 133.75,-907 138.04,-911.58 143.19,-915.32 148.75,-918.38"/>
<polygon fill="#63b8ff" stroke="#63b8ff" points="147.2,-921.52 157.75,-922.54 150.14,-915.17 147.2,-921.52"/>
</a>
</g>
</g>
<!-- Node8 -->
<g id="Node000008" class="node">
<title>Node8</title>
<g id="a_Node000008"><a xlink:href="group__max30105__interface__driver.html#gace815038483d145f9c5380e7ecb673ae" target="_top" xlink:title="interface iic bus init">
<polygon fill="white" stroke="#666666" points="263,-898 159.25,-898 159.25,-866 263,-866 263,-898"/>
<text xml:space="preserve" text-anchor="start" x="167.25" y="-884.5" font-family="Helvetica,sans-Serif" font-size="10.00">max30105_interface</text>
<text xml:space="preserve" text-anchor="middle" x="211.12" y="-872.5" font-family="Helvetica,sans-Serif" font-size="10.00">_iic_init</text>
</a>
</g>
</g>
<!-- Node1&#45;&gt;Node8 -->
<g id="edge7_Node000001_Node000008" class="edge">
<title>Node1&#45;&gt;Node8</title>
<g id="a_edge7_Node000001_Node000008"><a xlink:title=" ">
<path fill="none" stroke="#63b8ff" d="M49.81,-591.44C50.16,-631.69 56.85,-778.45 133.75,-857 138.08,-861.42 143.21,-865.07 148.72,-868.06"/>
<polygon fill="#63b8ff" stroke="#63b8ff" points="147.05,-871.15 157.6,-872.16 149.98,-864.79 147.05,-871.15"/>
</a>
</g>
</g>
<!-- Node9 -->
<g id="Node000009" class="node">
<title>Node9</title>
<g id="a_Node000009"><a xlink:href="group__max30105__interface__driver.html#ga5c99c8f5299379f77fce37533609deec" target="_top" xlink:title="interface iic bus read">
<polygon fill="white" stroke="#666666" points="263,-848 159.25,-848 159.25,-816 263,-816 263,-848"/>
<text xml:space="preserve" text-anchor="start" x="167.25" y="-834.5" font-family="Helvetica,sans-Serif" font-size="10.00">max30105_interface</text>
<text xml:space="preserve" text-anchor="middle" x="211.12" y="-822.5" font-family="Helvetica,sans-Serif" font-size="10.00">_iic_read</text>
</a>
</g>
</g>
<!-- Node1&#45;&gt;Node9 -->
<g id="edge8_Node000001_Node000009" class="edge">
<title>Node1&#45;&gt;Node9</title>
<g id="a_edge8_Node000001_Node000009"><a xlink:title=" ">
<path fill="none" stroke="#63b8ff" d="M50.63,-591.49C53.75,-627.07 68.74,-744.48 133.75,-807 138.15,-811.23 143.28,-814.75 148.75,-817.67"/>
<polygon fill="#63b8ff" stroke="#63b8ff" points="146.98,-820.7 157.53,-821.68 149.89,-814.34 146.98,-820.7"/>
</a>
</g>
</g>
<!-- Node10 -->
<g id="Node000010" class="node">
<title>Node10</title>
<g id="a_Node000010"><a xlink:href="group__max30105__interface__driver.html#ga2e85e704f4b77a3c9a15b00f702762c8" target="_top" xlink:title="interface iic bus write">
<polygon fill="white" stroke="#666666" points="263,-798 159.25,-798 159.25,-766 263,-766 263,-798"/>
<text xml:space="preserve" text-anchor="start" x="167.25" y="-784.5" font-family="Helvetica,sans-Serif" font-size="10.00">max30105_interface</text>
<text xml:space="preserve" text-anchor="middle" x="211.12" y="-772.5" font-family="Helvetica,sans-Serif" font-size="10.00">_iic_write</text>
</a>
</g>
</g>
<!-- Node1&#45;&gt;Node10 -->
<g id="edge9_Node000001_Node000010" class="edge">
<title>Node1&#45;&gt;Node10</title>
<g id="a_edge9_Node000001_Node000010"><a xlink:title=" ">
<path fill="none" stroke="#63b8ff" d="M51.86,-591.46C58.13,-621.7 80.37,-710.07 133.75,-757 138.16,-760.87 143.17,-764.15 148.49,-766.92"/>
<polygon fill="#63b8ff" stroke="#63b8ff" points="147.04,-770.11 157.6,-771.02 149.92,-763.72 147.04,-770.11"/>
</a>
</g>
</g>
<!-- Node11 -->
<g id="Node000011" class="node">
<title>Node11</title>
<g id="a_Node000011"><a xlink:href="group__max30105__basic__driver.html#ga7db4082d747afd07f4fbcf3fc09cf12d" target="_top" xlink:title="convert the proximity threshold to the register raw data">
<polygon fill="white" stroke="#666666" points="267.12,-748 155.12,-748 155.12,-704 267.12,-704 267.12,-748"/>
<text xml:space="preserve" text-anchor="start" x="163.12" y="-734.5" font-family="Helvetica,sans-Serif" font-size="10.00">max30105_proximity</text>
<text xml:space="preserve" text-anchor="start" x="163.12" y="-722.5" font-family="Helvetica,sans-Serif" font-size="10.00">_threshold_convert_to</text>
<text xml:space="preserve" text-anchor="middle" x="211.12" y="-710.5" font-family="Helvetica,sans-Serif" font-size="10.00">_register</text>
</a>
</g>
</g>
<!-- Node1&#45;&gt;Node11 -->
<g id="edge10_Node000001_Node000011" class="edge">
<title>Node1&#45;&gt;Node11</title>
<g id="a_edge10_Node000001_Node000011"><a xlink:title=" ">
<path fill="none" stroke="#63b8ff" d="M54.93,-591.3C66.17,-613.27 95.35,-665.13 133.75,-695 137.21,-697.69 140.93,-700.18 144.81,-702.48"/>
<polygon fill="#63b8ff" stroke="#63b8ff" points="142.9,-705.43 153.37,-707.09 146.22,-699.27 142.9,-705.43"/>
</a>
</g>
</g>
<!-- Node12 -->
<g id="Node000012" class="node">
<title>Node12</title>
<g id="a_Node000012"><a xlink:href="group__max30105__basic__driver.html#gac2ea0ee7065af858a139291c9aec3e9d" target="_top" xlink:title="set the adc resolution">
<polygon fill="white" stroke="#666666" points="285.12,-686 137.12,-686 137.12,-666 285.12,-666 285.12,-686"/>
<text xml:space="preserve" text-anchor="middle" x="211.12" y="-672.5" font-family="Helvetica,sans-Serif" font-size="10.00">max30105_set_adc_resolution</text>
</a>
</g>
</g>
<!-- Node1&#45;&gt;Node12 -->
<g id="edge11_Node000001_Node000012" class="edge">
<title>Node1&#45;&gt;Node12</title>
<g id="a_edge11_Node000001_Node000012"><a xlink:title=" ">
<path fill="none" stroke="#63b8ff" d="M58.25,-591.35C72.16,-607.82 101.67,-639.89 133.75,-657 136.94,-658.7 140.3,-660.26 143.74,-661.68"/>
<polygon fill="#63b8ff" stroke="#63b8ff" points="142.25,-664.86 152.85,-665.01 144.66,-658.29 142.25,-664.86"/>
</a>
</g>
</g>
<!-- Node13 -->
<g id="Node000013" class="node">
<title>Node13</title>
<g id="a_Node000013"><a xlink:href="group__max30105__basic__driver.html#gafc3935d509160e632ed0e191a8c49c25" target="_top" xlink:title="enable or disable die temperature">
<polygon fill="white" stroke="#666666" points="288.5,-648 133.75,-648 133.75,-628 288.5,-628 288.5,-648"/>
<text xml:space="preserve" text-anchor="middle" x="211.12" y="-634.5" font-family="Helvetica,sans-Serif" font-size="10.00">max30105_set_die_temperature</text>
</a>
</g>
</g>
<!-- Node1&#45;&gt;Node13 -->
<g id="edge12_Node000001_Node000013" class="edge">
<title>Node1&#45;&gt;Node13</title>
<g id="a_edge12_Node000001_Node000013"><a xlink:title=" ">
<path fill="none" stroke="#63b8ff" d="M70.13,-591.43C86.86,-599.74 111.4,-611.23 133.75,-619 139.48,-620.99 145.51,-622.86 151.58,-624.6"/>
<polygon fill="#63b8ff" stroke="#63b8ff" points="150.44,-627.91 161.01,-627.17 152.28,-621.16 150.44,-627.91"/>
</a>
</g>
</g>
<!-- Node14 -->
<g id="Node000014" class="node">
<title>Node14</title>
<g id="a_Node000014"><a xlink:href="group__max30105__basic__driver.html#ga287d7f1063a84e74d83351c2a57af83d" target="_top" xlink:title="set the fifo almost full value">
<polygon fill="white" stroke="#666666" points="286.62,-610 135.62,-610 135.62,-590 286.62,-590 286.62,-610"/>
<text xml:space="preserve" text-anchor="middle" x="211.12" y="-596.5" font-family="Helvetica,sans-Serif" font-size="10.00">max30105_set_fifo_almost_full</text>
</a>
</g>
</g>
<!-- Node1&#45;&gt;Node14 -->
<g id="edge13_Node000001_Node000014" class="edge">
<title>Node1&#45;&gt;Node14</title>
<g id="a_edge13_Node000001_Node000014"><a xlink:title=" ">
<path fill="none" stroke="#63b8ff" d="M97.96,-586.7C106.25,-587.68 115.1,-588.73 124.04,-589.79"/>
<polygon fill="#63b8ff" stroke="#63b8ff" points="123.55,-593.26 133.89,-590.96 124.37,-586.31 123.55,-593.26"/>
</a>
</g>
</g>
<!-- Node15 -->
<g id="Node000015" class="node">
<title>Node15</title>
<g id="a_Node000015"><a xlink:href="group__max30105__basic__driver.html#ga8f426c1a8ec16ff1e343dfc577b4504d" target="_top" xlink:title="enable or disable the fifo roll">
<polygon fill="white" stroke="#666666" points="269.38,-572 152.88,-572 152.88,-552 269.38,-552 269.38,-572"/>
<text xml:space="preserve" text-anchor="middle" x="211.12" y="-558.5" font-family="Helvetica,sans-Serif" font-size="10.00">max30105_set_fifo_roll</text>
</a>
</g>
</g>
<!-- Node1&#45;&gt;Node15 -->
<g id="edge14_Node000001_Node000015" class="edge">
<title>Node1&#45;&gt;Node15</title>
<g id="a_edge14_Node000001_Node000015"><a xlink:title=" ">
<path fill="none" stroke="#63b8ff" d="M97.96,-575.3C111.62,-573.68 126.77,-571.88 141.41,-570.15"/>
<polygon fill="#63b8ff" stroke="#63b8ff" points="141.44,-573.67 150.96,-569.01 140.62,-566.72 141.44,-573.67"/>
</a>
</g>
</g>
<!-- Node16 -->
<g id="Node000016" class="node">
<title>Node16</title>
<g id="a_Node000016"><a xlink:href="group__max30105__basic__driver.html#ga22b672c50cf8e2c56f306637b1e3ee23" target="_top" xlink:title="set the fifo sample averaging">
<polygon fill="white" stroke="#666666" points="278.75,-534 143.5,-534 143.5,-502 278.75,-502 278.75,-534"/>
<text xml:space="preserve" text-anchor="start" x="151.5" y="-520.5" font-family="Helvetica,sans-Serif" font-size="10.00">max30105_set_fifo_sample</text>
<text xml:space="preserve" text-anchor="middle" x="211.12" y="-508.5" font-family="Helvetica,sans-Serif" font-size="10.00">_averaging</text>
</a>
</g>
</g>
<!-- Node1&#45;&gt;Node16 -->
<g id="edge15_Node000001_Node000016" class="edge">
<title>Node1&#45;&gt;Node16</title>
<g id="a_edge15_Node000001_Node000016"><a xlink:title=" ">
<path fill="none" stroke="#63b8ff" d="M71.32,-570.5C88.11,-562.48 112.15,-551.4 133.75,-543 137.87,-541.4 142.15,-539.81 146.47,-538.25"/>
<polygon fill="#63b8ff" stroke="#63b8ff" points="147.56,-541.58 155.84,-534.97 145.25,-534.97 147.56,-541.58"/>
</a>
</g>
</g>
<!-- Node17 -->
<g id="Node000017" class="node">
<title>Node17</title>
<g id="a_Node000017"><a xlink:href="group__max30105__basic__driver.html#gab443b9d0b9721fb129dceffee315ec0e" target="_top" xlink:title="set the interrupt bool">
<polygon fill="white" stroke="#666666" points="271.25,-484 151,-484 151,-464 271.25,-464 271.25,-484"/>
<text xml:space="preserve" text-anchor="middle" x="211.12" y="-470.5" font-family="Helvetica,sans-Serif" font-size="10.00">max30105_set_interrupt</text>
</a>
</g>
</g>
<!-- Node1&#45;&gt;Node17 -->
<g id="edge16_Node000001_Node000017" class="edge">
<title>Node1&#45;&gt;Node17</title>
<g id="a_edge16_Node000001_Node000017"><a xlink:title=" ">
<path fill="none" stroke="#63b8ff" d="M56.61,-570.78C69.36,-552.27 98.9,-513.26 133.75,-493 136.52,-491.39 139.42,-489.92 142.41,-488.57"/>
<polygon fill="#63b8ff" stroke="#63b8ff" points="143.41,-491.93 151.42,-485 140.83,-485.43 143.41,-491.93"/>
</a>
</g>
</g>
<!-- Node18 -->
<g id="Node000018" class="node">
<title>Node18</title>
<g id="a_Node000018"><a xlink:href="group__max30105__basic__driver.html#gac1fa71fb49d2251a05f0fa3da840e193" target="_top" xlink:title="set the green led pulse amplitude">
<polygon fill="white" stroke="#666666" points="274.62,-446 147.62,-446 147.62,-414 274.62,-414 274.62,-446"/>
<text xml:space="preserve" text-anchor="start" x="155.62" y="-432.5" font-family="Helvetica,sans-Serif" font-size="10.00">max30105_set_led_green</text>
<text xml:space="preserve" text-anchor="middle" x="211.12" y="-420.5" font-family="Helvetica,sans-Serif" font-size="10.00">_pulse_amplitude</text>
</a>
</g>
</g>
<!-- Node1&#45;&gt;Node18 -->
<g id="edge17_Node000001_Node000018" class="edge">
<title>Node1&#45;&gt;Node18</title>
<g id="a_edge17_Node000001_Node000018"><a xlink:title=" ">
<path fill="none" stroke="#63b8ff" d="M53.86,-570.83C63.7,-547 91.49,-487.12 133.75,-455 135.1,-453.97 136.5,-452.98 137.94,-452.04"/>
<polygon fill="#63b8ff" stroke="#63b8ff" points="139.62,-455.1 146.55,-447.09 136.14,-449.03 139.62,-455.1"/>
</a>
</g>
</g>
<!-- Node19 -->
<g id="Node000019" class="node">
<title>Node19</title>
<g id="a_Node000019"><a xlink:href="group__max30105__basic__driver.html#gafc190f86f9f5d48defc867af5e516cf6" target="_top" xlink:title="set the ir led pulse amplitude">
<polygon fill="white" stroke="#666666" points="265.25,-396 157,-396 157,-364 265.25,-364 265.25,-396"/>
<text xml:space="preserve" text-anchor="start" x="165" y="-382.5" font-family="Helvetica,sans-Serif" font-size="10.00">max30105_set_led_ir</text>
<text xml:space="preserve" text-anchor="middle" x="211.12" y="-370.5" font-family="Helvetica,sans-Serif" font-size="10.00">_pulse_amplitude</text>
</a>
</g>
</g>
<!-- Node1&#45;&gt;Node19 -->
<g id="edge18_Node000001_Node000019" class="edge">
<title>Node1&#45;&gt;Node19</title>
<g id="a_edge18_Node000001_Node000019"><a xlink:title=" ">
<path fill="none" stroke="#63b8ff" d="M51.86,-570.54C58.13,-540.3 80.37,-451.93 133.75,-405 137.57,-401.64 141.84,-398.74 146.37,-396.22"/>
<polygon fill="#63b8ff" stroke="#63b8ff" points="147.74,-399.45 155.24,-391.96 144.71,-393.13 147.74,-399.45"/>
</a>
</g>
</g>
<!-- Node20 -->
<g id="Node000020" class="node">
<title>Node20</title>
<g id="a_Node000020"><a xlink:href="group__max30105__basic__driver.html#gaad195444f8a9dca7be9003999ba8de19" target="_top" xlink:title="set the proximity led pulse amplitude">
<polygon fill="white" stroke="#666666" points="282.5,-346 139.75,-346 139.75,-314 282.5,-314 282.5,-346"/>
<text xml:space="preserve" text-anchor="start" x="147.75" y="-332.5" font-family="Helvetica,sans-Serif" font-size="10.00">max30105_set_led_proximity</text>
<text xml:space="preserve" text-anchor="middle" x="211.12" y="-320.5" font-family="Helvetica,sans-Serif" font-size="10.00">_pulse_amplitude</text>
</a>
</g>
</g>
<!-- Node1&#45;&gt;Node20 -->
<g id="edge19_Node000001_Node000020" class="edge">
<title>Node1&#45;&gt;Node20</title>
<g id="a_edge19_Node000001_Node000020"><a xlink:title=" ">
<path fill="none" stroke="#63b8ff" d="M50.63,-570.51C53.75,-534.93 68.74,-417.52 133.75,-355 134.5,-354.28 135.27,-353.58 136.05,-352.9"/>
<polygon fill="#63b8ff" stroke="#63b8ff" points="137.84,-355.93 143.92,-347.26 133.75,-350.25 137.84,-355.93"/>
</a>
</g>
</g>
<!-- Node21 -->
<g id="Node000021" class="node">
<title>Node21</title>
<g id="a_Node000021"><a xlink:href="group__max30105__basic__driver.html#ga3d02a20bc7adb5b8f1c8c4e39315d3b6" target="_top" xlink:title="set the red led pulse amplitude">
<polygon fill="white" stroke="#666666" points="269.38,-296 152.88,-296 152.88,-264 269.38,-264 269.38,-296"/>
<text xml:space="preserve" text-anchor="start" x="160.88" y="-282.5" font-family="Helvetica,sans-Serif" font-size="10.00">max30105_set_led_red</text>
<text xml:space="preserve" text-anchor="middle" x="211.12" y="-270.5" font-family="Helvetica,sans-Serif" font-size="10.00">_pulse_amplitude</text>
</a>
</g>
</g>
<!-- Node1&#45;&gt;Node21 -->
<g id="edge20_Node000001_Node000021" class="edge">
<title>Node1&#45;&gt;Node21</title>
<g id="a_edge20_Node000001_Node000021"><a xlink:title=" ">
<path fill="none" stroke="#63b8ff" d="M49.81,-570.56C50.16,-530.31 56.85,-383.55 133.75,-305 136.52,-302.17 139.61,-299.66 142.92,-297.44"/>
<polygon fill="#63b8ff" stroke="#63b8ff" points="144.44,-300.6 151.42,-292.64 140.99,-294.51 144.44,-300.6"/>
</a>
</g>
</g>
<!-- Node22 -->
<g id="Node000022" class="node">
<title>Node22</title>
<g id="a_Node000022"><a xlink:href="group__max30105__basic__driver.html#ga8019225a52c18b0af78911b0f964c492" target="_top" xlink:title="set the mode">
<polygon fill="white" stroke="#666666" points="265.62,-246 156.62,-246 156.62,-226 265.62,-226 265.62,-246"/>
<text xml:space="preserve" text-anchor="middle" x="211.12" y="-232.5" font-family="Helvetica,sans-Serif" font-size="10.00">max30105_set_mode</text>
</a>
</g>
</g>
<!-- Node1&#45;&gt;Node22 -->
<g id="edge21_Node000001_Node000022" class="edge">
<title>Node1&#45;&gt;Node22</title>
<g id="a_edge21_Node000001_Node000022"><a xlink:title=" ">
<path fill="none" stroke="#63b8ff" d="M51.13,-570.53C57.39,-519.97 86.87,-301.51 133.75,-255 137.34,-251.44 141.49,-248.51 145.95,-246.11"/>
<polygon fill="#63b8ff" stroke="#63b8ff" points="147.02,-249.46 154.77,-242.25 144.21,-243.05 147.02,-249.46"/>
</a>
</g>
</g>
<!-- Node23 -->
<g id="Node000023" class="node">
<title>Node23</title>
<g id="a_Node000023"><a xlink:href="group__max30105__basic__driver.html#gac700d003ca16fbe7fe034511c5118eb7" target="_top" xlink:title="set the particle sensing adc range">
<polygon fill="white" stroke="#666666" points="269.38,-208 152.88,-208 152.88,-176 269.38,-176 269.38,-208"/>
<text xml:space="preserve" text-anchor="start" x="160.88" y="-194.5" font-family="Helvetica,sans-Serif" font-size="10.00">max30105_set_particle</text>
<text xml:space="preserve" text-anchor="middle" x="211.12" y="-182.5" font-family="Helvetica,sans-Serif" font-size="10.00">_sensing_adc_range</text>
</a>
</g>
</g>
<!-- Node1&#45;&gt;Node23 -->
<g id="edge22_Node000001_Node000023" class="edge">
<title>Node1&#45;&gt;Node23</title>
<g id="a_edge22_Node000001_Node000023"><a xlink:title=" ">
<path fill="none" stroke="#63b8ff" d="M50.88,-570.85C56.31,-517.67 83.87,-271.57 133.75,-217 136.42,-214.08 139.43,-211.5 142.69,-209.22"/>
<polygon fill="#63b8ff" stroke="#63b8ff" points="144.21,-212.39 151.08,-204.32 140.68,-206.34 144.21,-212.39"/>
</a>
</g>
</g>
<!-- Node24 -->
<g id="Node000024" class="node">
<title>Node24</title>
<g id="a_Node000024"><a xlink:href="group__max30105__basic__driver.html#gad444bcb32124467d25cdbb300e70baf4" target="_top" xlink:title="set the particle sensing sample rate">
<polygon fill="white" stroke="#666666" points="269.38,-158 152.88,-158 152.88,-126 269.38,-126 269.38,-158"/>
<text xml:space="preserve" text-anchor="start" x="160.88" y="-144.5" font-family="Helvetica,sans-Serif" font-size="10.00">max30105_set_particle</text>
<text xml:space="preserve" text-anchor="middle" x="211.12" y="-132.5" font-family="Helvetica,sans-Serif" font-size="10.00">_sensing_sample_rate</text>
</a>
</g>
</g>
<!-- Node1&#45;&gt;Node24 -->
<g id="edge23_Node000001_Node000024" class="edge">
<title>Node1&#45;&gt;Node24</title>
<g id="a_edge23_Node000001_Node000024"><a xlink:title=" ">
<path fill="none" stroke="#63b8ff" d="M50.59,-570.63C54.76,-512.74 77.81,-229.87 133.75,-167 136.43,-163.99 139.47,-161.34 142.77,-159.01"/>
<polygon fill="#63b8ff" stroke="#63b8ff" points="144.45,-162.08 151.32,-154.01 140.92,-156.04 144.45,-162.08"/>
</a>
</g>
</g>
<!-- Node25 -->
<g id="Node000025" class="node">
<title>Node25</title>
<g id="a_Node000025"><a xlink:href="group__max30105__basic__driver.html#gacdc7e3c30179913848dd1ce7e6a630b6" target="_top" xlink:title="set the proximity interrupt threshold">
<polygon fill="white" stroke="#666666" points="273.5,-108 148.75,-108 148.75,-76 273.5,-76 273.5,-108"/>
<text xml:space="preserve" text-anchor="start" x="156.75" y="-94.5" font-family="Helvetica,sans-Serif" font-size="10.00">max30105_set_proximity</text>
<text xml:space="preserve" text-anchor="middle" x="211.12" y="-82.5" font-family="Helvetica,sans-Serif" font-size="10.00">_interrupt_threshold</text>
</a>
</g>
</g>
<!-- Node1&#45;&gt;Node25 -->
<g id="edge24_Node000001_Node000025" class="edge">
<title>Node1&#45;&gt;Node25</title>
<g id="a_edge24_Node000001_Node000025"><a xlink:title=" ">
<path fill="none" stroke="#63b8ff" d="M50.34,-570.63C53.33,-508.72 71.64,-188.29 133.75,-117 135.43,-115.08 137.25,-113.3 139.2,-111.66"/>
<polygon fill="#63b8ff" stroke="#63b8ff" points="140.92,-114.73 147.16,-106.17 136.94,-108.97 140.92,-114.73"/>
</a>
</g>
</g>
<!-- Node26 -->
<g id="Node000026" class="node">
<title>Node26</title>
<g id="a_Node000026"><a xlink:href="group__max30105__basic__driver.html#ga524034197880f1b0321b43126e704778" target="_top" xlink:title="set the shutdown">
<polygon fill="white" stroke="#666666" points="274.62,-58 147.62,-58 147.62,-38 274.62,-38 274.62,-58"/>
<text xml:space="preserve" text-anchor="middle" x="211.12" y="-44.5" font-family="Helvetica,sans-Serif" font-size="10.00">max30105_set_shutdown</text>
</a>
</g>
</g>
<!-- Node1&#45;&gt;Node26 -->
<g id="edge25_Node000001_Node000026" class="edge">
<title>Node1&#45;&gt;Node26</title>
<g id="a_edge25_Node000001_Node000026"><a xlink:title=" ">
<path fill="none" stroke="#63b8ff" d="M50.07,-570.76C51.49,-505.16 62.54,-144.31 133.75,-67 135.09,-65.55 136.52,-64.2 138.02,-62.95"/>
<polygon fill="#63b8ff" stroke="#63b8ff" points="139.7,-66.04 146.13,-57.62 135.85,-60.19 139.7,-66.04"/>
</a>
</g>
</g>
<!-- Node27 -->
<g id="Node000027" class="node">
<title>Node27</title>
<g id="a_Node000027"><a xlink:href="group__max30105__basic__driver.html#gaff49518a4db8500b5242df7a5373d372" target="_top" xlink:title="set the led slot">
<polygon fill="white" stroke="#666666" points="261.5,-20 160.75,-20 160.75,0 261.5,0 261.5,-20"/>
<text xml:space="preserve" text-anchor="middle" x="211.12" y="-6.5" font-family="Helvetica,sans-Serif" font-size="10.00">max30105_set_slot</text>
</a>
</g>
</g>
<!-- Node1&#45;&gt;Node27 -->
<g id="edge26_Node000001_Node000027" class="edge">
<title>Node1&#45;&gt;Node27</title>
<g id="a_edge26_Node000001_Node000027"><a xlink:title=" ">
<path fill="none" stroke="#63b8ff" d="M49.94,-570.9C50.57,-502.94 57.53,-112.66 133.75,-29 138.23,-24.08 143.77,-20.35 149.8,-17.52"/>
<polygon fill="#63b8ff" stroke="#63b8ff" points="150.76,-20.9 158.9,-14.12 148.31,-14.35 150.76,-20.9"/>
</a>
</g>
</g>
</g>
</svg>
